<svg width="18" height="24" viewBox="0 0 18 24" fill="none" xmlns="http://www.w3.org/2000/svg">
<path d="M1.87109 12.75C1.14453 14.0391 0.5 15.6055 0.5 17.0625C0.5 18.5234 0.964844 19.7734 1.75 20.793V24H3.625V22.4766C5.20312 23.4727 7.21094 24 9.25 24C11.2891 24 13.2969 23.4727 14.875 22.4766V24H16.75V20.793C17.5352 19.7734 18 18.5234 18 17.0625C18 15.6055 17.3555 14.0391 16.6289 12.75H18V10.25H14.875H9.25H3.625H0.5V12.75H1.87109Z" fill="black"/>
<path d="M6.84255 5.04538C6.49335 4.69618 6.01973 4.5 5.52588 4.5C5.03203 4.5 4.55841 4.69618 4.2092 5.04538C3.86 5.39459 3.66382 5.86821 3.66382 6.36206C3.66382 6.85591 3.86 7.32953 4.2092 7.67874C4.55841 8.02794 5.03203 8.22412 5.52588 8.22412C6.01973 8.22412 6.49335 8.02794 6.84255 7.67874C7.19176 7.32953 7.38794 6.85591 7.38794 6.36206C7.38794 5.86821 7.19176 5.39459 6.84255 5.04538Z" fill="#22C55E"/>
<path d="M14.0181 1.59396C13.4943 1.07015 12.7839 0.775879 12.0431 0.775879C11.3023 0.775879 10.5919 1.07015 10.0681 1.59396C9.54427 2.11776 9.25 2.8282 9.25 3.56897C9.25 4.30974 9.54427 5.02018 10.0681 5.54398C10.5919 6.06779 11.3023 6.36206 12.0431 6.36206C12.7839 6.36206 13.4943 6.06779 14.0181 5.54398C14.5419 5.02018 14.8362 4.30974 14.8362 3.56897C14.8362 2.8282 14.5419 2.11776 14.0181 1.59396Z" fill="#22C55E"/>
<rect opacity="0.5" x="0.5" y="2.91797" width="17.5" height="7.33215" fill="url(#paint0_linear_35_565)"/>
<defs>
<linearGradient id="paint0_linear_35_565" x1="9.25" y1="2.91797" x2="9.25" y2="10.2501" gradientUnits="userSpaceOnUse">
<stop stop-color="#00C853" stop-opacity="0"/>
<stop offset="1" stop-color="#00C853"/>
</linearGradient>
</defs>
</svg>
