<svg width="52" height="60" viewBox="0 0 52 60" fill="none" xmlns="http://www.w3.org/2000/svg">
<g clip-path="url(#clip0_506_72721)">
<g clip-path="url(#clip1_506_72721)">
<path d="M17.1287 23.574C17.1492 26.4872 14.8182 28.4983 12.3396 28.1006C11.8886 28.0289 11.4007 24.636 10.9538 24.3961C10.3429 24.0681 9.63352 23.8426 9.02464 23.4182C8.0693 22.754 7.25337 25.0685 6.35748 24.2075C2.89487 20.8843 0.139553 16.2552 0.106751 11.5953C0.0801002 7.75346 1.08259 4.75008 2.15274 1.12142C2.409 0.254231 3.25979 -0.207039 4.08188 0.0902238L4.75021 0.330084C5.44314 0.578145 5.91876 1.29363 5.90851 2.07266V2.08701C5.86135 4.30316 5.71785 7.5628 5.92081 9.61289C6.27547 13.2805 10.9968 16.8251 14.3754 16.9932C15.8719 17.067 17.0938 18.4426 17.1041 20.0622L17.1287 23.574Z" fill="white"/>
<path d="M39.8601 29.1093C39.8539 28.8879 39.6264 28.7444 39.4234 28.8326C38.3451 29.3041 37.2729 29.833 35.9465 30.2389C35.3171 30.4337 34.6754 30.5259 34.0399 30.5259C32.5249 30.5259 31.0447 29.9909 29.8556 28.9761C28.1213 27.4938 27.2766 25.2469 27.5985 22.9631L28.2217 18.5329C28.5559 16.1609 30.7372 14.4799 33.0886 14.7894C33.103 14.7894 33.1173 14.7935 33.1337 14.7956C33.3141 14.8181 33.4125 14.5926 33.2752 14.4737C29.6834 11.3637 26.0609 11.7061 19.8614 11.7061C12.3294 11.7061 3.33157 17.8174 3.84819 22.6372C3.92609 23.3486 3.64933 26.8788 2.93385 29.2549C2.28397 31.4198 -0.498002 35.4769 0.932961 38.5459C2.11381 41.0736 3.12041 41.0367 2.82314 42.5128C2.54638 43.8925 2.23272 45.9939 3.22291 47.7139C4.61287 50.1289 4.05115 49.6266 3.25366 54.6719C2.45618 59.7192 4.17415 60.1374 5.82858 59.9755C7.483 59.8135 8.80941 57.9746 7.95247 56.5621C7.09553 55.1475 6.81467 52.7858 8.5675 49.2187C10.3224 45.6515 10.2506 49.1735 10.3839 49.6205C12.3561 56.1685 16.6859 51.2257 17.6719 49.9259C18.5924 48.7143 21.1632 46.1189 21.1632 52.2856C21.1632 58.4523 23.6787 57.0808 24.345 57.0275C25.0092 56.9721 26.4381 55.5657 25.4561 53.5833C24.4741 51.5988 24.8452 50.2273 25.5976 48.536C26.0158 47.5991 26.1819 46.0943 26.9097 44.977C27.4652 44.1221 28.4411 42.0556 30.198 42.7814C30.9791 43.1032 31.8832 45.1287 31.0467 47.5704C30.0586 50.461 30.8171 52.7141 33.6893 50.9182C36.5615 49.1243 34.4376 46.2973 34.4376 46.2973C33.2034 44.0955 34.4007 40.5673 35.3089 38.9579C36.2601 37.2748 40.0733 36.6516 39.8621 29.1114L39.8601 29.1093ZM8.13288 33.7282C7.69416 34.5093 7.65521 35.3416 6.41695 35.2247C3.83589 34.9767 4.61287 31.7847 5.27915 30.2779C5.94748 28.7731 6.49486 27.1043 6.61786 25.5217C6.74087 23.939 11.2654 22.9795 11.4048 26.4995C11.5422 30.0175 10.9477 30.3394 10.1932 31.43C9.43879 32.5207 8.5798 32.9348 8.13083 33.7302L8.13288 33.7282ZM17.3275 43.2652C17.1471 44.5465 14.4082 45.3501 14.0945 43.995C13.9633 43.4251 13.7706 43.1975 13.0695 43.0171C12.2044 42.7937 11.8927 43.9602 10.8226 43.4394C9.7545 42.9187 7.97297 42.7752 10.9846 38.7898C13.9941 34.8045 14.7608 33.4986 15.9622 33.6236C17.387 33.7733 17.4731 42.2299 17.3275 43.2631V43.2652ZM27.0245 28.812C27.9901 29.5214 28.847 31.5838 28.7137 35.2042C28.5805 38.8247 26.9712 40.6042 24.099 41.3832C21.2268 42.1602 18.084 26.9444 20.5913 26.2207C23.6951 25.3248 25.5176 27.705 27.0245 28.8141V28.812Z" fill="white"/>
<path d="M29.3718 22.961C28.888 26.3949 32.0595 29.1912 35.3499 28.1826C41.3218 26.3518 44.0238 24.2628 47.3388 19.5558C50.2069 15.4843 51.6747 6.88829 51.0208 3.06487C50.8649 2.14848 50.0224 1.52935 49.1101 1.66876L48.37 1.78151C47.6012 1.89837 47.0026 2.5216 46.9083 3.30063V3.31498C46.6643 5.53728 44.8131 11.5338 41.9163 14.3342C39.2573 16.903 36.7829 17.3909 33.1727 16.9153C31.5756 16.7062 30.0955 17.846 29.8679 19.4615L29.3738 22.963L29.3718 22.961Z" fill="white"/>
<path d="M49.0014 16.2695C49.0014 16.2695 46.9718 20.4189 46.3999 24.146C46.0575 26.3826 46.6643 28.2646 47.3573 29.5336C49.6575 33.7548 44.4646 34.6998 42.7343 32.9737C40.6801 30.9256 43.3678 29.7099 42.558 26.2371C42.025 23.9512 40.7765 22.6822 40.7765 22.6822L48.9994 16.2695H49.0014Z" fill="white"/>
</g>
</g>
<defs>
<clipPath id="clip0_506_72721">
<rect width="51.0678" height="60" fill="white" transform="translate(0.106781)"/>
</clipPath>
<clipPath id="clip1_506_72721">
<rect width="51.0678" height="60" fill="white" transform="translate(0.106781)"/>
</clipPath>
</defs>
</svg>
