<svg width="174" height="40" viewBox="0 0 174 40" fill="none" xmlns="http://www.w3.org/2000/svg">
<g clip-path="url(#clip0_506_72719)">
<g clip-path="url(#clip1_506_72719)">
<path d="M10.2132 16.1444C10.2255 17.8923 8.82691 19.099 7.33977 18.8604C7.06916 18.8173 6.77641 16.7816 6.50825 16.6377C6.1417 16.4408 5.7161 16.3055 5.35077 16.0509C4.77757 15.6524 4.28801 17.0411 3.75047 16.5245C1.67291 14.5306 0.019718 11.7531 3.71821e-05 8.9572C-0.0159535 6.65208 0.585543 4.85005 1.22763 2.67285C1.38139 2.15254 1.89186 1.87578 2.38511 2.05413L2.78611 2.19805C3.20187 2.34689 3.48724 2.77618 3.48109 3.2436V3.25221C3.4528 4.5819 3.3667 6.53768 3.48847 7.76774C3.70127 9.9683 6.53408 12.0951 8.56121 12.1959C9.45915 12.2402 10.1923 13.0656 10.1984 14.0373L10.2132 16.1444Z" fill="black"/>
<path d="M23.852 19.4656C23.8483 19.3327 23.7118 19.2466 23.59 19.2995C22.943 19.5824 22.2997 19.8998 21.5038 20.1433C21.1262 20.2602 20.7412 20.3156 20.3599 20.3156C19.4509 20.3156 18.5628 19.9945 17.8493 19.3856C16.8087 18.4963 16.3019 17.1482 16.495 15.7779L16.869 13.1197C17.0695 11.6966 18.3783 10.6879 19.7891 10.8737C19.7977 10.8737 19.8063 10.8761 19.8162 10.8773C19.9244 10.8909 19.9835 10.7556 19.9011 10.6842C17.746 8.81824 15.5725 9.02366 11.8528 9.02366C7.33359 9.02366 1.93488 12.6904 2.24486 15.5823C2.2916 16.0091 2.12554 18.1273 1.69625 19.5529C1.30633 20.8519 -0.362858 23.2861 0.49572 25.1275C1.20423 26.6442 1.80819 26.622 1.62983 27.5077C1.46377 28.3355 1.27557 29.5963 1.86969 30.6283C2.70367 32.0773 2.36663 31.776 1.88814 34.8031C1.40965 37.8315 2.44044 38.0825 3.43309 37.9853C4.42574 37.8881 5.22159 36.7848 4.70743 35.9372C4.19326 35.0885 4.02475 33.6715 5.07644 31.5312C6.12937 29.3909 6.08632 31.5041 6.16627 31.7723C7.34958 35.7011 9.94746 32.7354 10.5391 31.9556C11.0914 31.2286 12.6339 29.6713 12.6339 33.3714C12.6339 37.0714 14.1432 36.2485 14.5429 36.2165C14.9415 36.1833 15.7988 35.3394 15.2096 34.15C14.6204 32.9593 14.8431 32.1364 15.2945 31.1216C15.5454 30.5594 15.6451 29.6566 16.0817 28.9862C16.4151 28.4733 17.0006 27.2334 18.0547 27.6688C18.5234 27.8619 19.0658 29.0772 18.564 30.5422C17.9711 32.2766 18.4262 33.6284 20.1495 32.5509C21.8728 31.4746 20.5985 29.7784 20.5985 29.7784C19.858 28.4573 20.5764 26.3404 21.1213 25.3748C21.692 24.3649 23.9799 23.991 23.8532 19.4668L23.852 19.4656ZM4.81567 22.2369C4.55244 22.7056 4.52907 23.205 3.78611 23.1348C2.23748 22.986 2.70367 21.0708 3.10343 20.1667C3.50443 19.2639 3.83286 18.2626 3.90666 17.313C3.98046 16.3634 6.69519 15.7877 6.77884 17.8997C6.86125 20.0105 6.50454 20.2036 6.05188 20.858C5.59922 21.5124 5.08382 21.7609 4.81444 22.2381L4.81567 22.2369ZM10.3325 27.9591C10.2242 28.7279 8.58087 29.2101 8.39267 28.397C8.31394 28.0551 8.19832 27.9185 7.77764 27.8103C7.25856 27.6762 7.07159 28.3761 6.4295 28.0637C5.78864 27.7512 4.71973 27.6651 6.52668 25.2739C8.3324 22.8827 8.79243 22.0991 9.51325 22.1742C10.3681 22.264 10.4198 27.3379 10.3325 27.9579V27.9591ZM16.1506 19.2872C16.73 19.7128 17.2441 20.9503 17.1642 23.1225C17.0842 25.2948 16.1186 26.3625 14.3953 26.8299C12.672 27.2961 10.7864 18.1667 12.2907 17.7324C14.153 17.1949 15.2465 18.623 16.1506 19.2885V19.2872Z" fill="black"/>
<path d="M17.559 15.7766C17.2687 17.8369 19.1716 19.5147 21.1459 18.9095C24.729 17.8111 26.3502 16.5577 28.3392 13.7335C30.0601 11.2906 30.9408 6.13297 30.5484 3.83892C30.4549 3.28909 29.9494 2.91761 29.402 3.00126L28.9579 3.06891C28.4967 3.13902 28.1375 3.51296 28.0809 3.98038V3.98899C27.9345 5.32237 26.8238 8.92028 25.0857 10.6005C23.4904 12.1418 22.0057 12.4345 19.8396 12.1492C18.8813 12.0237 17.9932 12.7076 17.8567 13.6769L17.5603 15.7778L17.559 15.7766Z" fill="black"/>
<path d="M29.3368 11.7617C29.3368 11.7617 28.119 14.2513 27.7759 16.4876C27.5704 17.8296 27.9345 18.9588 28.3503 19.7202C29.7304 22.2529 26.6147 22.8199 25.5765 21.7842C24.344 20.5554 25.9566 19.826 25.4707 17.7422C25.1509 16.3707 24.4018 15.6093 24.4018 15.6093L29.3356 11.7617H29.3368Z" fill="black"/>
</g>
</g>
<path d="M48.7657 28.275C47.8407 28.275 45.7907 27.45 45.7907 25.875C45.7907 22.575 45.9157 19.45 45.9157 19.45C45.2657 18.9 44.1407 18.5 43.1657 18.5H42.9407C42.8157 22.425 42.6407 25.8 42.6407 25.8C42.8657 26.05 43.3657 26.325 43.7157 26.425C43.3907 27.975 42.8157 28.275 42.5407 28.275C41.5907 28.275 39.5657 27.45 39.5657 25.875C39.5657 20.4 39.8657 13.1 39.8657 13.1C39.6407 12.675 39.2157 12.3 38.8157 12.075C39.0157 11.125 39.5407 10.225 40.1907 10.225C41.2407 10.225 43.0157 11.05 43.0157 12.625C43.0157 14.175 43.0157 15.925 42.9657 17.6C43.3157 16.775 44.0407 16.05 44.9157 16.05C45.8657 16.05 49.0907 17.025 49.0907 19.225C49.0907 22.6 48.8157 25.775 48.8157 25.775C49.0907 26.075 49.5907 26.225 50.1407 26.4C49.8157 27.95 49.0407 28.275 48.7657 28.275ZM56.6385 28.425C54.7885 28.425 50.8135 27.275 50.8135 24.875C50.8135 22.675 50.8385 21.65 51.0135 20.425C51.2885 18.2 55.1385 16.05 56.0135 16.05C57.1885 16.05 58.8385 18.225 58.8385 19.975C58.8385 21.65 55.8635 22.525 53.8635 22.575V23.1V24.7C54.8885 25.55 56.5635 26.075 58.0135 26.325C57.9135 27.25 57.7135 28.425 56.6385 28.425ZM56.1885 20.275C56.0135 19.25 55.0385 18.25 54.3135 18.125C54.1635 18.8 54.0135 19.8 53.9385 21.075C54.6885 20.95 55.6635 20.7 56.1885 20.275ZM63.1252 28.275C62.2002 28.275 60.1252 27.45 60.1252 25.875C60.1252 20.4 60.4252 13.1 60.4252 13.1C60.2002 12.675 59.7752 12.3 59.3502 12.075C59.5752 11.125 60.1002 10.225 60.7252 10.225C61.7752 10.225 63.5752 11.05 63.5752 12.625C63.5752 18.175 63.1752 25.775 63.1752 25.775C63.4502 26.075 63.9252 26.225 64.5002 26.4C64.1752 27.95 63.4252 28.275 63.1252 28.275ZM68.8869 28.275C67.9619 28.275 65.8869 27.45 65.8869 25.875C65.8869 20.4 66.1869 13.1 66.1869 13.1C65.9619 12.675 65.5369 12.3 65.1119 12.075C65.3369 11.125 65.8619 10.225 66.4869 10.225C67.5369 10.225 69.3369 11.05 69.3369 12.625C69.3369 18.175 68.9369 25.775 68.9369 25.775C69.2119 26.075 69.6869 26.225 70.2619 26.4C69.9369 27.95 69.1869 28.275 68.8869 28.275ZM76.276 26.4C75.951 27.95 75.201 28.275 74.901 28.275C73.976 28.275 71.901 27.45 71.901 25.875C71.901 22.575 72.076 18.925 72.076 18.925C71.726 18.6 71.176 18.2 70.726 17.95C70.751 16.675 71.601 16.05 71.926 16.05C73.251 16.05 75.226 17.225 75.226 18.45C75.226 21.85 74.951 25.775 74.951 25.775C75.226 26.075 75.726 26.225 76.276 26.4ZM75.126 13.85C75.126 14.3 74.551 15.175 74.176 15.175C73.276 15.175 71.676 14.45 71.676 13.45C71.676 13 72.226 12.125 72.601 12.125C73.551 12.125 75.126 12.85 75.126 13.85ZM77.0563 26.175C77.0563 25.225 77.6813 24.425 78.1063 24.2C78.7813 25.1 79.9313 25.775 81.4813 25.875C81.6313 25.4 81.7313 24.925 81.7563 24.4C81.2563 23.4 77.4063 22.325 77.4063 20.3C77.4063 19.725 77.5063 19.025 77.6563 18.55C78.0813 17.325 80.0813 16.05 81.4063 16.05C83.0063 16.05 84.3313 16.625 84.3313 17.375C84.3313 18 83.6813 18.925 83.1313 19.3C82.3313 18.625 81.4063 18.25 80.3063 18.125C80.1313 18.575 80.0063 19.075 79.9813 19.65C80.4563 20.45 84.5063 21.525 84.5063 23.625C84.5063 24.2 84.4063 24.925 84.2563 25.425C83.9063 26.6 82.0063 28.275 80.3813 28.275C78.5063 28.275 77.0563 27.25 77.0563 26.175ZM95.0303 28.275C94.1053 28.275 92.0553 27.45 92.0553 25.875C92.0553 22.575 92.1803 19.45 92.1803 19.45C91.5303 18.9 90.4053 18.5 89.4303 18.5H89.2053C89.0803 22.425 88.9053 25.8 88.9053 25.8C89.1303 26.05 89.6303 26.325 89.9803 26.425C89.6553 27.975 89.0803 28.275 88.8053 28.275C87.8553 28.275 85.8303 27.45 85.8303 25.875C85.8303 20.4 86.1303 13.1 86.1303 13.1C85.9053 12.675 85.4803 12.3 85.0803 12.075C85.2803 11.125 85.8053 10.225 86.4553 10.225C87.5053 10.225 89.2803 11.05 89.2803 12.625C89.2803 14.175 89.2803 15.925 89.2303 17.6C89.5803 16.775 90.3053 16.05 91.1803 16.05C92.1303 16.05 95.3553 17.025 95.3553 19.225C95.3553 22.6 95.0803 25.775 95.0803 25.775C95.3553 26.075 95.8553 26.225 96.4053 26.4C96.0803 27.95 95.3053 28.275 95.0303 28.275ZM108.251 26.225C108.151 27.15 107.976 28.425 106.851 28.425C105.351 28.425 101.401 27.725 101.401 24.875C101.401 22.8 101.501 21.4 101.626 20.075C101.901 18.075 104.951 16.05 106.151 16.05C106.901 16.05 108.826 16.575 108.826 17.35C108.826 17.95 108.326 18.55 107.051 19.225C106.526 18.725 105.726 18.325 104.951 18.075C104.701 19.275 104.451 21.35 104.451 23.15V24.775C105.301 25.55 106.801 26 108.251 26.225ZM116.05 19.4C115.5 18.75 114.875 18.5 113.975 18.5C113.9 18.5 113.825 18.5 113.775 18.525C113.775 21.875 113.475 25.775 113.475 25.775C113.75 26.025 114.3 26.3 114.65 26.4C114.325 27.95 113.75 28.275 113.45 28.275C112.5 28.275 110.45 27.45 110.45 25.875C110.45 22.575 110.6 18.925 110.6 18.925C110.275 18.6 109.7 18.2 109.275 17.95C109.3 16.675 110.125 16.05 110.475 16.05C111.375 16.05 112.575 16.625 113.25 17.35C113.5 16.65 113.95 16.05 114.7 16.05C115.725 16.05 117.1 16.6 117.1 17.525C117.1 18.175 116.75 18.85 116.05 19.4ZM122.849 28.425C120.999 28.425 117.024 27.275 117.024 24.875C117.024 22.675 117.049 21.65 117.224 20.425C117.499 18.2 121.349 16.05 122.224 16.05C123.399 16.05 125.049 18.225 125.049 19.975C125.049 21.65 122.074 22.525 120.074 22.575V23.1V24.7C121.099 25.55 122.774 26.075 124.224 26.325C124.124 27.25 123.924 28.425 122.849 28.425ZM122.399 20.275C122.224 19.25 121.249 18.25 120.524 18.125C120.374 18.8 120.224 19.8 120.149 21.075C120.899 20.95 121.874 20.7 122.399 20.275ZM128.172 28.275C126.672 28.275 125.222 26.275 125.222 24.325C125.222 22.75 128.172 21.875 130.147 21.8C130.197 20.525 130.247 19.725 130.247 19.725C129.197 18.95 127.622 18.35 126.197 18.1C126.272 17.125 126.547 15.925 127.547 15.925C129.272 15.925 133.397 17.05 133.397 19.45C133.397 22.85 133.122 25.5 133.122 25.5C133.397 25.85 133.947 26.15 134.447 26.375C134.122 27.925 133.372 28.275 133.072 28.275C132.372 28.275 131.047 27.825 130.422 26.925C130.022 27.55 129.222 28.275 128.172 28.275ZM130.072 25.875C130.072 24.975 130.072 24.1 130.097 23.325C129.347 23.45 128.347 23.7 127.872 24.1C128.147 25.425 128.972 26.2 129.947 26.2H130.097C130.072 26.1 130.072 26 130.072 25.875ZM140.118 28.275C138.718 28.275 135.868 27.575 135.868 24.9C135.868 22.9 135.893 20.6 135.943 18.65H134.718C134.543 18.4 134.443 18.025 134.443 17.675C134.443 17 135.118 16.625 135.993 16.45C136.018 15.625 136.068 14.925 136.118 14.525C136.243 13.425 137.068 12.775 138.268 12.775C138.668 12.775 139.093 12.9 139.293 13.1C139.293 13.85 139.268 15 139.218 16.325C140.318 16.325 141.093 16.3 141.493 16.25C141.568 16.4 141.693 16.675 141.693 17.125C141.693 18.075 140.943 18.6 139.143 18.65C139.093 20.275 139.043 22 138.968 23.55L138.893 25.05C139.418 25.675 140.368 26.05 141.468 26.175C141.368 27.125 141.218 28.275 140.118 28.275ZM147.687 26.4C147.362 27.95 146.612 28.275 146.312 28.275C145.387 28.275 143.312 27.45 143.312 25.875C143.312 22.575 143.487 18.925 143.487 18.925C143.137 18.6 142.587 18.2 142.137 17.95C142.162 16.675 143.012 16.05 143.337 16.05C144.662 16.05 146.637 17.225 146.637 18.45C146.637 21.85 146.362 25.775 146.362 25.775C146.637 26.075 147.137 26.225 147.687 26.4ZM146.537 13.85C146.537 14.3 145.962 15.175 145.587 15.175C144.687 15.175 143.087 14.45 143.087 13.45C143.087 13 143.637 12.125 144.012 12.125C144.962 12.125 146.537 12.85 146.537 13.85ZM158.572 18.45C158.572 20.6 158.497 22.425 158.272 23.525C157.847 25.575 155.097 28.275 153.772 28.275C152.297 28.275 149.122 27.15 149.122 24.475C149.122 21.075 149.272 18.925 149.272 18.925C148.947 18.6 148.372 18.2 147.947 17.95C147.972 16.675 148.797 16.05 149.147 16.05C150.447 16.05 152.447 17.225 152.447 18.45C152.447 21.775 152.147 24.325 152.147 24.325C152.472 25.05 153.797 25.875 154.947 25.9C155.097 25.5 155.372 23.8 155.422 20V18.525C155.172 18.3 154.647 18.025 154.322 17.925C154.622 16.35 155.247 16.05 155.522 16.05C156.447 16.05 158.572 16.9 158.572 18.45ZM165.721 28.425C163.871 28.425 159.896 27.275 159.896 24.875C159.896 22.675 159.921 21.65 160.096 20.425C160.371 18.2 164.221 16.05 165.096 16.05C166.271 16.05 167.921 18.225 167.921 19.975C167.921 21.65 164.946 22.525 162.946 22.575V23.1V24.7C163.971 25.55 165.646 26.075 167.096 26.325C166.996 27.25 166.796 28.425 165.721 28.425ZM165.271 20.275C165.096 19.25 164.121 18.25 163.396 18.125C163.246 18.8 163.096 19.8 163.021 21.075C163.771 20.95 164.746 20.7 165.271 20.275Z" fill="black"/>
<defs>
<clipPath id="clip0_506_72719">
<rect width="30.6407" height="36" fill="white" transform="translate(0 2)"/>
</clipPath>
<clipPath id="clip1_506_72719">
<rect width="30.6407" height="36" fill="white" transform="translate(0 2)"/>
</clipPath>
</defs>
</svg>
